<?xml version="1.0"?>
<svg version="1.1" xmlns="http://www.w3.org/2000/svg" width="400" height="200" style="border: dashed 2px #aaa"><path fill="#ffc107" d=""/><path fill="#ffc107" d="M22.978515625,88.0859375q0-2.294921875,0.1220703125-4.541015625t0.4150390625-4.443359375q0.1953125-1.123046875,1.7333984375-1.611328125t2.5634765625-0.48828125l1.171875,0.09765625q1.416015625,0.1953125,2.8564453125-0.1953125t2.8564453125-0.390625q3.3203125,0,7.421875,0.732421875t7.6904296875,2.490234375t6.0302734375,4.6142578125t2.44140625,7.0556640625t-2.5390625,7.8369140625t-6.396484375,6.396484375t-8.30078125,4.3212890625t-8.154296875,1.5625q0.390625,9.423828125,1.0986328125,18.701171875t2.4169921875,18.5546875l0.09765625,0.634765625q0,0.68359375-0.6103515625,1.123046875t-1.4404296875,0.7080078125t-1.6845703125,0.3662109375t-1.3916015625,0.09765625q-1.220703125,0-2.9541015625-0.4638671875t-2.1240234375-1.8310546875q-1.123046875-4.296875-1.7578125-9.4482421875t-0.927734375-10.7666015625t-0.4150390625-11.3037109375t-0.1220703125-11.1083984375l0-10.986328125q0-1.806640625-0.048828125-3.759765625t-0.048828125-3.955078125z M32.20703125,80.17578125q0,6.689453125,0.146484375,13.3544921875t0.341796875,13.3544921875q2.880859375-0.5859375,5.8837890625-2.0751953125t5.419921875-3.5400390625t3.90625-4.6630859375t1.4892578125-5.4931640625q0-2.587890625-1.2939453125-4.638671875t-3.3447265625-3.515625q-2.001953125-1.416015625-4.541015625-2.197265625q-2.24609375-0.68359375-4.39453125-0.68359375l-0.537109375,0z M68.27490234375,118.115234375q0-2.001953125,0.7080078125-3.369140625t3.0029296875-1.3671875q0.87890625,0,2.197265625,0.2685546875t1.513671875,1.3427734375q0.48828125,2.880859375,0.537109375,6.25t0.341796875,6.34765625q1.123046875-2.197265625,2.880859375-4.736328125t4.00390625-4.6875t4.8828125-3.564453125t5.37109375-1.416015625q0.1953125,0,0.732421875,0.146484375t1.0009765625,0.4150390625t0.5615234375,0.6103515625t-0.537109375,0.634765625q-0.1953125,0.5859375-0.830078125,0.7080078125t-1.123046875,0.1220703125q-0.29296875,0-0.927734375-0.244140625q-3.61328125,1.904296875-6.15234375,5.17578125t-4.150390625,7.2509765625t-2.34375,8.3984375t-0.732421875,8.6181640625q0,2.099609375-0.9521484375,2.5390625t-3.0517578125,0.439453125q-1.123046875,0-2.3681640625-0.244140625t-1.7333984375-1.5625q-0.87890625-2.783203125-1.4404296875-6.396484375t-0.8544921875-7.4462890625t-0.4150390625-7.5439453125t-0.1220703125-6.689453125z M102.9755859375,133.7890625q0-3.41796875,0.7568359375-8.056640625t2.5634765625-8.7890625t4.7607421875-7.0556640625t7.4462890625-2.9052734375q4.19921875,0,6.298828125,2.4169921875t2.099609375,6.5185546875q0,2.685546875-1.0009765625,5.8837890625t-2.8564453125,6.0546875t-4.39453125,4.7607421875t-5.6640625,1.904296875l-1.26953125-0.09765625q0,1.318359375,0.390625,3.5400390625t1.1474609375,4.4189453125t1.953125,3.857421875t2.9052734375,1.66015625q2.490234375,0,4.78515625-2.001953125t4.345703125-4.443359375t3.80859375-4.443359375t3.22265625-2.001953125q0.78125,0,1.611328125,0.244140625t0.927734375,1.3671875q0,0.68359375-0.3662109375,1.123046875t-0.6591796875,0.9765625q-1.513671875,2.587890625-3.2958984375,4.931640625t-4.0283203125,4.248046875t-4.9072265625,3.0029296875t-5.8837890625,1.0986328125q-4.19921875,0-6.982421875-1.4892578125t-4.4921875-4.00390625t-2.4658203125-5.810546875t-0.7568359375-6.9091796875z M111.7158203125,130.078125l1.3671875,1.220703125q0.9765625,0.87890625,1.953125,0.390625t1.7578125-1.7822265625t1.4404296875-3.1982421875t1.171875-3.90625t0.7568359375-3.90625t0.244140625-3.173828125l0-1.66015625t-0.146484375-1.7578125t-0.5126953125-1.3916015625t-1.1474609375-0.7080078125q-0.244140625-0.048828125-0.439453125-0.048828125q-1.66015625,0-2.83203125,2.099609375q-1.26953125,2.34375-2.05078125,5.6884765625t-1.123046875,6.8603515625t-0.439453125,5.2734375z M143.90185546875,119.5556640625q-0.1220703125-1.6357421875,0.1953125-3.0029296875t1.26953125-2.2216796875t3.0517578125-0.8544921875q0.48828125,0,1.1962890625,0.1220703125t1.3916015625,0.3173828125t1.1474609375,0.5859375t0.4638671875,1.07421875l0,5.517578125q1.904296875-2.197265625,4.150390625-3.1494140625t5.126953125-0.9521484375q2.197265625,0,4.345703125,1.0009765625t4.052734375,2.6611328125t3.2958984375,3.662109375t2.0263671875,4.00390625q0.390625-1.806640625,0.87890625-4.4189453125t1.4404296875-5.0048828125t2.5146484375-4.1015625t4.150390625-1.708984375q2.783203125,0,4.6875,2.001953125t3.1005859375,5.2001953125t1.806640625,7.1533203125t0.9033203125,7.8125t0.29296875,7.2021484375l0,5.2490234375q0,0.5859375-0.439453125,0.9521484375t-1.0986328125,0.5615234375t-1.3671875,0.244140625t-1.0986328125,0.048828125q-1.513671875,0-2.7587890625-0.4638671875t-1.2451171875-2.3681640625l0-4.39453125t-0.09765625-5.6884765625t-0.341796875-6.103515625t-0.634765625-5.5419921875t-1.0009765625-4.00390625t-1.4892578125-1.5625q-1.220703125,0-1.7578125,1.3671875t-0.9033203125,3.466796875t-0.5615234375,4.443359375t-0.537109375,4.443359375t-1.0986328125,3.4423828125t-2.0751953125,1.3427734375q-1.416015625,0-2.490234375-1.3427734375t-2.1240234375-3.3447265625t-2.099609375-4.296875t-2.3193359375-4.296875q-1.26953125-2.05078125-2.734375-3.3203125q-1.318359375-1.220703125-2.978515625-1.171875l-0.244140625,0q-2.197265625,0.09765625-3.4423828125,1.5869140625t-1.904296875,3.6376953125t-0.8056640625,4.6142578125t-0.146484375,4.3212890625q0,1.7578125,0.29296875,4.1015625q0.1953125,1.5625,0.1953125,2.978515625q0,0.732421875-0.048828125,1.416015625q-0.146484375,2.05078125-1.0986328125,3.4423828125t-3.5400390625,1.3916015625q-0.9765625,0-2.44140625-0.1953125t-1.953125-1.318359375q-1.123046875-2.001953125-1.708984375-5.0537109375t-0.87890625-6.298828125t-0.341796875-6.4453125t-0.048828125-5.4931640625q0-1.611328125-0.1220703125-3.2470703125z M205.482421875,133.7890625q0-3.41796875,0.7568359375-8.056640625t2.5634765625-8.7890625t4.7607421875-7.0556640625t7.4462890625-2.9052734375q4.19921875,0,6.298828125,2.4169921875t2.099609375,6.5185546875q0,2.685546875-1.0009765625,5.8837890625t-2.8564453125,6.0546875t-4.39453125,4.7607421875t-5.6640625,1.904296875l-1.26953125-0.09765625q0,1.318359375,0.390625,3.5400390625t1.1474609375,4.4189453125t1.953125,3.857421875t2.9052734375,1.66015625q2.490234375,0,4.78515625-2.001953125t4.345703125-4.443359375t3.80859375-4.443359375t3.22265625-2.001953125q0.78125,0,1.611328125,0.244140625t0.927734375,1.3671875q0,0.68359375-0.3662109375,1.123046875t-0.6591796875,0.9765625q-1.513671875,2.587890625-3.2958984375,4.931640625t-4.0283203125,4.248046875t-4.9072265625,3.0029296875t-5.8837890625,1.0986328125q-4.19921875,0-6.982421875-1.4892578125t-4.4921875-4.00390625t-2.4658203125-5.810546875t-0.7568359375-6.9091796875z M214.22265625,130.078125l1.3671875,1.220703125q0.9765625,0.87890625,1.953125,0.390625t1.7578125-1.7822265625t1.4404296875-3.1982421875t1.171875-3.90625t0.7568359375-3.90625t0.244140625-3.173828125l0-1.66015625t-0.146484375-1.7578125t-0.5126953125-1.3916015625t-1.1474609375-0.7080078125q-0.244140625-0.048828125-0.439453125-0.048828125q-1.66015625,0-2.83203125,2.099609375q-1.26953125,2.34375-2.05078125,5.6884765625t-1.123046875,6.8603515625t-0.439453125,5.2734375z M243.79638671875,147.119140625q0-0.29296875,0.7080078125-1.5625t1.806640625-3.0517578125t2.392578125-3.8818359375t2.587890625-4.150390625t2.4169921875-3.7109375t1.708984375-2.5390625q-0.5859375-1.123046875-2.001953125-3.076171875t-2.9052734375-3.955078125t-2.587890625-3.857421875t-1.0986328125-2.734375q0-1.416015625,1.3916015625-1.85546875t2.7099609375-0.439453125q1.416015625,0,2.001953125,0.244140625t1.5625,1.3671875q-0.09765625,0.29296875,0.7080078125,1.5380859375t1.904296875,2.63671875t2.099609375,2.5390625t1.1962890625,1.4892578125l2.1484375-2.1484375t2.6611328125-2.4658203125t2.9052734375-2.001953125t2.783203125-0.8056640625q0.48828125,0,1.4892578125,0.244140625t1.0009765625,0.9765625q-1.416015625,1.513671875-2.587890625,2.490234375t-2.392578125,1.9775390625t-2.44140625,2.24609375t-2.83203125,3.1494140625q0.68359375,1.123046875,2.587890625,3.7109375t3.857421875,5.4931640625t3.4423828125,5.46875t1.4892578125,3.5400390625q0,0.5859375-0.6103515625,0.9521484375t-1.3916015625,0.6103515625t-1.5869140625,0.341796875t-1.1962890625,0.09765625q-1.123046875,0-2.5634765625-0.29296875t-2.0751953125-1.318359375q-1.904296875-2.783203125-3.2958984375-5.8349609375t-3.3935546875-5.8349609375q-0.390625,0.68359375-1.5869140625,3.22265625t-2.8564453125,5.3466796875t-3.4912109375,5.0048828125t-3.3447265625,2.197265625l-0.09765625,0q-0.68359375,0-1.953125-0.244140625t-1.26953125-1.123046875z"/></svg>
